<svg xmlns="http://www.w3.org/2000/svg" viewBox="0 0 1920 1080" width="1920" height="1080" role="img">
  <defs>
    <radialGradient id="swSky" cx="52%" cy="34%" r="78%">
      <stop offset="0%" stop-color="#193629"/>
      <stop offset="52%" stop-color="#0A1610"/>
      <stop offset="100%" stop-color="#060F0A"/>
    </radialGradient>
    <radialGradient id="swHalo" cx="50%" cy="42%" r="52%">
      <stop offset="0%" stop-color="#F2DFA8" stop-opacity="0.2"/>
      <stop offset="60%" stop-color="#4FA882" stop-opacity="0.07"/>
      <stop offset="100%" stop-color="#4FA882" stop-opacity="0"/>
    </radialGradient>
    <radialGradient id="swContact" cx="50%" cy="50%" r="50%">
      <stop offset="0%" stop-color="#060F0A" stop-opacity="0.75"/>
      <stop offset="100%" stop-color="#060F0A" stop-opacity="0"/>
    </radialGradient>
    <linearGradient id="swScreen" x1="0" y1="0" x2="0" y2="1">
      <stop offset="0%" stop-color="#30664f"/>
      <stop offset="100%" stop-color="#142a20"/>
    </linearGradient>
    <filter id="swSoft" x="-60%" y="-60%" width="220%" height="220%">
      <feGaussianBlur stdDeviation="26"/>
    </filter>
    <radialGradient id="swVignette" cx="50%" cy="46%" r="72%">
      <stop offset="55%" stop-color="#060F0A" stop-opacity="0"/>
      <stop offset="100%" stop-color="#060F0A" stop-opacity="0.72"/>
    </radialGradient>
  </defs><rect width="1920" height="1080" fill="url(#swSky)"/><rect width="1920" height="1080" fill="url(#swHalo)"/><circle cx="1064" cy="274" r="1.7" fill="#4FA882" opacity="0"><animate attributeName="opacity" values="0;0.5;0" dur="11.0s" begin="1.1s" repeatCount="indefinite"/></circle><circle cx="47" cy="221" r="3.3" fill="#F2DFA8" opacity="0"><animate attributeName="opacity" values="0;0.5;0" dur="13.7s" begin="6.1s" repeatCount="indefinite"/></circle><circle cx="1176" cy="101" r="3.9" fill="#F2DFA8" opacity="0"><animate attributeName="opacity" values="0;0.5;0" dur="7.3s" begin="8.1s" repeatCount="indefinite"/></circle><circle cx="1546" cy="326" r="2.9" fill="#F2DFA8" opacity="0"><animate attributeName="opacity" values="0;0.5;0" dur="8.4s" begin="4.0s" repeatCount="indefinite"/></circle><circle cx="69" cy="488" r="2.7" fill="#F2DFA8" opacity="0"><animate attributeName="opacity" values="0;0.5;0" dur="14.0s" begin="7.6s" repeatCount="indefinite"/></circle><circle cx="109" cy="479" r="2.2" fill="#4FA882" opacity="0"><animate attributeName="opacity" values="0;0.5;0" dur="10.6s" begin="5.3s" repeatCount="indefinite"/></circle><circle cx="1088" cy="870" r="2.8" fill="#F2DFA8" opacity="0"><animate attributeName="opacity" values="0;0.5;0" dur="11.0s" begin="1.5s" repeatCount="indefinite"/></circle><circle cx="308" cy="177" r="2.5" fill="#F2DFA8" opacity="0"><animate attributeName="opacity" values="0;0.5;0" dur="14.0s" begin="5.1s" repeatCount="indefinite"/></circle><circle cx="4" cy="634" r="2.8" fill="#F2DFA8" opacity="0"><animate attributeName="opacity" values="0;0.5;0" dur="10.1s" begin="6.1s" repeatCount="indefinite"/></circle><circle cx="516" cy="434" r="4.0" fill="#F2DFA8" opacity="0"><animate attributeName="opacity" values="0;0.5;0" dur="7.6s" begin="8.1s" repeatCount="indefinite"/></circle><circle cx="1465" cy="248" r="2.4" fill="#4FA882" opacity="0"><animate attributeName="opacity" values="0;0.5;0" dur="13.3s" begin="1.0s" repeatCount="indefinite"/></circle><circle cx="231" cy="422" r="3.2" fill="#F2DFA8" opacity="0"><animate attributeName="opacity" values="0;0.5;0" dur="13.5s" begin="0.8s" repeatCount="indefinite"/></circle><circle cx="849" cy="778" r="2.3" fill="#F2DFA8" opacity="0"><animate attributeName="opacity" values="0;0.5;0" dur="8.4s" begin="2.6s" repeatCount="indefinite"/></circle><circle cx="1170" cy="376" r="2.5" fill="#F2DFA8" opacity="0"><animate attributeName="opacity" values="0;0.5;0" dur="8.4s" begin="3.1s" repeatCount="indefinite"/></circle><circle cx="494" cy="349" r="2.0" fill="#F2DFA8" opacity="0"><animate attributeName="opacity" values="0;0.5;0" dur="9.2s" begin="7.4s" repeatCount="indefinite"/></circle><circle cx="264" cy="251" r="3.8" fill="#4FA882" opacity="0"><animate attributeName="opacity" values="0;0.5;0" dur="12.6s" begin="5.3s" repeatCount="indefinite"/></circle><circle cx="73" cy="313" r="1.6" fill="#F2DFA8" opacity="0"><animate attributeName="opacity" values="0;0.5;0" dur="8.2s" begin="3.5s" repeatCount="indefinite"/></circle><circle cx="1386" cy="549" r="3.1" fill="#F2DFA8" opacity="0"><animate attributeName="opacity" values="0;0.5;0" dur="15.8s" begin="8.3s" repeatCount="indefinite"/></circle><circle cx="1083" cy="331" r="2.8" fill="#F2DFA8" opacity="0"><animate attributeName="opacity" values="0;0.5;0" dur="11.0s" begin="6.9s" repeatCount="indefinite"/></circle><circle cx="634" cy="857" r="2.2" fill="#F2DFA8" opacity="0"><animate attributeName="opacity" values="0;0.5;0" dur="13.9s" begin="2.7s" repeatCount="indefinite"/></circle><circle cx="917" cy="564" r="2.6" fill="#4FA882" opacity="0"><animate attributeName="opacity" values="0;0.5;0" dur="15.6s" begin="1.3s" repeatCount="indefinite"/></circle><circle cx="688" cy="739" r="2.3" fill="#F2DFA8" opacity="0"><animate attributeName="opacity" values="0;0.5;0" dur="10.5s" begin="2.6s" repeatCount="indefinite"/></circle><circle cx="1574" cy="628" r="3.5" fill="#F2DFA8" opacity="0"><animate attributeName="opacity" values="0;0.5;0" dur="14.5s" begin="3.0s" repeatCount="indefinite"/></circle><circle cx="275" cy="714" r="3.0" fill="#F2DFA8" opacity="0"><animate attributeName="opacity" values="0;0.5;0" dur="12.1s" begin="5.8s" repeatCount="indefinite"/></circle><circle cx="466" cy="692" r="3.7" fill="#F2DFA8" opacity="0"><animate attributeName="opacity" values="0;0.5;0" dur="14.7s" begin="4.6s" repeatCount="indefinite"/></circle><circle cx="1321" cy="486" r="3.0" fill="#4FA882" opacity="0"><animate attributeName="opacity" values="0;0.5;0" dur="7.5s" begin="8.5s" repeatCount="indefinite"/></circle><g><polygon points="840.0,-40.0 1150.0,-40.0 1056.0,228.8 900.0,228.8" fill="#4FA882" opacity="0.09" filter="url(#swSoft)"/><ellipse cx="960.0" cy="867.2" rx="239.2" ry="73.6" fill="url(#swContact)"/><polygon points="960.0,223.1 1414.1,485.3 960.0,747.5 505.9,485.3" fill="#2F7D5F"/><polygon points="1414.1,548.0 960.0,810.2 960.0,747.5 1414.1,485.3" fill="#20392b"/><polygon points="505.9,548.0 960.0,810.2 960.0,747.5 505.9,485.3" fill="#14271d"/><polygon points="1414.1,548.0 960.0,810.2 960.0,798.8" fill="#12231a"/><polygon points="505.9,548.0 960.0,810.2 960.0,798.8" fill="#0d1913"/><ellipse cx="960.0" cy="484.7" rx="237.3" ry="137.0" fill="#c1b194"/><polygon points="960.0,154.1 970.9,160.4 960.0,166.7 949.1,160.4" fill="#a18869"/><polygon points="970.9,308.6 960.0,314.9 960.0,166.7 970.9,160.4" fill="#8c6d48"/><polygon points="949.1,308.6 960.0,314.9 960.0,166.7 949.1,160.4" fill="#664e32"/><polygon points="1266.0,330.8 1276.9,337.1 1266.0,343.4 1255.2,337.1" fill="#a18869"/><polygon points="1276.9,485.3 1266.0,491.6 1266.0,343.4 1276.9,337.1" fill="#8c6d48"/><polygon points="1255.2,485.3 1266.0,491.6 1266.0,343.4 1255.2,337.1" fill="#664e32"/><polygon points="654.0,330.8 664.8,337.1 654.0,343.4 643.1,337.1" fill="#a18869"/><polygon points="664.8,485.3 654.0,491.6 654.0,343.4 664.8,337.1" fill="#8c6d48"/><polygon points="643.1,485.3 654.0,491.6 654.0,343.4 643.1,337.1" fill="#664e32"/><polygon points="960.0,507.5 970.9,513.8 960.0,520.1 949.1,513.8" fill="#a18869"/><polygon points="970.9,662.0 960.0,668.3 960.0,520.1 970.9,513.8" fill="#8c6d48"/><polygon points="949.1,662.0 960.0,668.3 960.0,520.1 949.1,513.8" fill="#664e32"/><circle cx="876.1" cy="220.3" r="65.0" fill="#F2DFA8" opacity="0.14" filter="url(#swSoft)"/><circle cx="876.1" cy="220.3" r="26.0" fill="#F2DFA8" opacity="0.3" filter="url(#swSoft)"/><circle cx="876.1" cy="220.3" r="5.5" fill="#f9efd4"/><circle cx="1043.9" cy="220.3" r="65.0" fill="#F2DFA8" opacity="0.14" filter="url(#swSoft)"/><circle cx="1043.9" cy="220.3" r="26.0" fill="#F2DFA8" opacity="0.3" filter="url(#swSoft)"/><circle cx="1043.9" cy="220.3" r="5.5" fill="#f9efd4"/><circle cx="1043.9" cy="476.8" r="65.0" fill="#F2DFA8" opacity="0.14" filter="url(#swSoft)"/><circle cx="1043.9" cy="476.8" r="26.0" fill="#F2DFA8" opacity="0.3" filter="url(#swSoft)"/><circle cx="1043.9" cy="476.8" r="5.5" fill="#f9efd4"/><circle cx="876.1" cy="476.8" r="65.0" fill="#F2DFA8" opacity="0.14" filter="url(#swSoft)"/><circle cx="876.1" cy="476.8" r="26.0" fill="#F2DFA8" opacity="0.3" filter="url(#swSoft)"/><circle cx="876.1" cy="476.8" r="5.5" fill="#f9efd4"/><path d="M1008.9,559.6 A19.5,11.3 0 0 0 1047.9,559.6 L1047.9,535.7 A19.5,11.3 0 0 1 1008.9,535.7 Z" fill="#795d3c"/><ellipse cx="1028.4" cy="535.7" rx="19.5" ry="11.3" fill="#a18869"/><polygon points="1028.4,496.3 1040.2,503.1 1028.4,510.0 1016.6,503.1" fill="#d48d7b"/><polygon points="1040.2,535.7 1028.4,542.5 1028.4,510.0 1040.2,503.1" fill="#ca735d"/><polygon points="1016.6,535.7 1028.4,542.5 1028.4,510.0 1016.6,503.1" fill="#955343"/><polygon points="1028.4,483.7 1040.2,490.6 1028.4,497.4 1016.6,490.6" fill="#e2d4b9"/><polygon points="1040.2,503.1 1028.4,510.0 1028.4,497.4 1040.2,490.6" fill="#dccaaa"/><polygon points="1016.6,503.1 1028.4,510.0 1028.4,497.4 1016.6,490.6" fill="#a2957c"/><path d="M862.4,556.4 A19.5,11.3 0 0 0 901.5,556.4 L901.5,532.4 A19.5,11.3 0 0 1 862.4,532.4 Z" fill="#795d3c"/><ellipse cx="881.9" cy="532.4" rx="19.5" ry="11.3" fill="#a18869"/><polygon points="881.9,493.1 893.7,499.9 881.9,506.7 870.1,499.9" fill="#72b99b"/><polygon points="893.7,532.4 881.9,539.2 881.9,506.7 893.7,499.9" fill="#53aa85"/><polygon points="870.1,532.4 881.9,539.2 881.9,506.7 870.1,499.9" fill="#3a7c60"/><polygon points="881.9,480.5 893.7,487.3 881.9,494.1 870.1,487.3" fill="#e2d4b9"/><polygon points="893.7,499.9 881.9,506.7 881.9,494.1 893.7,487.3" fill="#dccaaa"/><polygon points="870.1,499.9 881.9,506.7 881.9,494.1 870.1,487.3" fill="#a2957c"/><path d="M794.0,481.5 A19.5,11.3 0 0 0 833.1,481.5 L833.1,457.6 A19.5,11.3 0 0 1 794.0,457.6 Z" fill="#795d3c"/><ellipse cx="813.5" cy="457.6" rx="19.5" ry="11.3" fill="#a18869"/><polygon points="813.5,418.2 825.3,425.0 813.5,431.9 801.7,425.0" fill="#d3af63"/><polygon points="825.3,457.6 813.5,464.4 813.5,431.9 825.3,425.0" fill="#c99d40"/><polygon points="801.7,457.6 813.5,464.4 813.5,431.9 801.7,425.0" fill="#94732c"/><polygon points="813.5,405.6 825.3,412.5 813.5,419.3 801.7,412.5" fill="#e2d4b9"/><polygon points="825.3,425.0 813.5,431.9 813.5,419.3 825.3,412.5" fill="#dccaaa"/><polygon points="801.7,425.0 813.5,431.9 813.5,419.3 801.7,412.5" fill="#a2957c"/><path d="M872.1,409.9 A19.5,11.3 0 0 0 911.1,409.9 L911.1,385.9 A19.5,11.3 0 0 1 872.1,385.9 Z" fill="#795d3c"/><ellipse cx="891.6" cy="385.9" rx="19.5" ry="11.3" fill="#a18869"/><polygon points="891.6,346.6 903.4,353.4 891.6,360.2 879.8,353.4" fill="#72b99b"/><polygon points="903.4,385.9 891.6,392.7 891.6,360.2 903.4,353.4" fill="#53aa85"/><polygon points="879.8,385.9 891.6,392.7 891.6,360.2 879.8,353.4" fill="#3a7c60"/><polygon points="891.6,334.0 903.4,340.8 891.6,347.6 879.8,340.8" fill="#e2d4b9"/><polygon points="903.4,353.4 891.6,360.2 891.6,347.6 903.4,340.8" fill="#dccaaa"/><polygon points="879.8,353.4 891.6,360.2 891.6,347.6 879.8,340.8" fill="#a2957c"/><path d="M1018.5,413.1 A19.5,11.3 0 0 0 1057.6,413.1 L1057.6,389.2 A19.5,11.3 0 0 1 1018.5,389.2 Z" fill="#795d3c"/><ellipse cx="1038.1" cy="389.2" rx="19.5" ry="11.3" fill="#a18869"/><polygon points="1038.1,349.8 1049.9,356.6 1038.1,363.5 1026.3,356.6" fill="#d48d7b"/><polygon points="1049.9,389.2 1038.1,396.0 1038.1,363.5 1049.9,356.6" fill="#ca735d"/><polygon points="1026.3,389.2 1038.1,396.0 1038.1,363.5 1026.3,356.6" fill="#955343"/><polygon points="1038.1,337.2 1049.9,344.1 1038.1,350.9 1026.3,344.1" fill="#e2d4b9"/><polygon points="1049.9,356.6 1038.1,363.5 1038.1,350.9 1049.9,344.1" fill="#dccaaa"/><polygon points="1026.3,356.6 1038.1,363.5 1038.1,350.9 1026.3,344.1" fill="#a2957c"/><path d="M1086.9,488.0 A19.5,11.3 0 0 0 1126.0,488.0 L1126.0,464.0 A19.5,11.3 0 0 1 1086.9,464.0 Z" fill="#795d3c"/><ellipse cx="1106.5" cy="464.0" rx="19.5" ry="11.3" fill="#a18869"/><polygon points="1106.5,424.7 1118.3,431.5 1106.5,438.3 1094.7,431.5" fill="#72b99b"/><polygon points="1118.3,464.0 1106.5,470.8 1106.5,438.3 1118.3,431.5" fill="#53aa85"/><polygon points="1094.7,464.0 1106.5,470.8 1106.5,438.3 1094.7,431.5" fill="#3a7c60"/><polygon points="1106.5,412.1 1118.3,418.9 1106.5,425.7 1094.7,418.9" fill="#e2d4b9"/><polygon points="1118.3,431.5 1106.5,438.3 1106.5,425.7 1118.3,418.9" fill="#dccaaa"/><polygon points="1094.7,431.5 1106.5,438.3 1106.5,425.7 1094.7,418.9" fill="#a2957c"/><path d="M862.3,484.7 A97.7,56.4 0 0 0 1057.7,484.7 L1057.7,440.3 A97.7,56.4 0 0 1 862.3,440.3 Z" fill="#d1cabc"/><ellipse cx="960.0" cy="440.3" rx="97.7" ry="56.4" fill="#f1ebde"/><ellipse cx="960.0" cy="439.7" rx="94.2" ry="54.4" fill="#efe9db"/><circle cx="960.0" cy="416.9" r="169.0" fill="#4FA882" opacity="0.14" filter="url(#swSoft)"/><circle cx="960.0" cy="416.9" r="67.6" fill="#4FA882" opacity="0.3" filter="url(#swSoft)"/><circle cx="960.0" cy="416.9" r="14.3" fill="#a7d4c1"/><polygon points="604.6,432.9 989.6,655.2 969.9,666.6 584.8,444.3" fill="#e2d4b9"/><polygon points="989.6,690.5 969.9,701.9 969.9,666.6 989.6,655.2" fill="#dccaaa"/><polygon points="584.8,479.6 969.9,701.9 969.9,666.6 584.8,444.3" fill="#a2957c"/><polygon points="950.1,233.4 1098.2,318.9 1078.5,330.3 930.4,244.8" fill="#e2d4b9"/><polygon points="1098.2,354.2 1078.5,365.6 1078.5,330.3 1098.2,318.9" fill="#dccaaa"/><polygon points="930.4,280.1 1078.5,365.6 1078.5,330.3 930.4,244.8" fill="#a2957c"/><polygon points="1187.1,370.2 1335.2,455.7 1315.4,467.1 1167.3,381.6" fill="#e2d4b9"/><polygon points="1335.2,491.0 1315.4,502.4 1315.4,467.1 1335.2,455.7" fill="#dccaaa"/><polygon points="1167.3,416.9 1315.4,502.4 1315.4,467.1 1167.3,381.6" fill="#a2957c"/><polygon points="856.3,285.3 865.6,290.6 856.3,296.0 847.1,290.6" fill="#a18869"/><polygon points="865.6,334.3 856.3,339.6 856.3,296.0 865.6,290.6" fill="#8c6d48"/><polygon points="847.1,334.3 856.3,339.6 856.3,296.0 847.1,290.6" fill="#664e32"/><polygon points="856.3,221.8 908.4,251.9 856.3,281.9 804.3,251.9" fill="#65aa8f"/><polygon points="908.4,295.5 856.3,325.5 856.3,281.9 908.4,251.9" fill="#429776"/><polygon points="804.3,295.5 856.3,325.5 856.3,281.9 804.3,251.9" fill="#2e6e55"/><polygon points="856.3,203.4 891.6,223.8 856.3,244.1 821.1,223.8" fill="#74b39a"/><polygon points="891.6,255.8 856.3,276.1 856.3,244.1 891.6,223.8" fill="#54a284"/><polygon points="821.1,255.8 856.3,276.1 856.3,244.1 821.1,223.8" fill="#3c765f"/><polygon points="1073.5,587.5 1081.7,592.2 1073.5,596.9 1065.4,592.2" fill="#a18869"/><polygon points="1081.7,630.6 1073.5,635.4 1073.5,596.9 1081.7,592.2" fill="#8c6d48"/><polygon points="1065.4,630.6 1073.5,635.4 1073.5,596.9 1065.4,592.2" fill="#664e32"/><polygon points="1073.5,531.5 1119.4,558.0 1073.5,584.5 1027.6,558.0" fill="#72b99b"/><polygon points="1119.4,596.5 1073.5,623.0 1073.5,584.5 1119.4,558.0" fill="#53aa85"/><polygon points="1027.6,596.5 1073.5,623.0 1073.5,584.5 1027.6,558.0" fill="#3a7c60"/><polygon points="1073.5,515.2 1104.6,533.2 1073.5,551.1 1042.4,533.2" fill="#81c1a5"/><polygon points="1104.6,561.4 1073.5,579.4 1073.5,551.1 1104.6,533.2" fill="#64b391"/><polygon points="1042.4,561.4 1073.5,579.4 1073.5,551.1 1042.4,533.2" fill="#48836a"/></g><rect width="1920" height="1080" fill="url(#swVignette)"/></svg>
