<svg xmlns="http://www.w3.org/2000/svg" viewBox="0 0 1920 1080" width="1920" height="1080" role="img">
  <defs>
    <radialGradient id="swSky" cx="52%" cy="34%" r="78%">
      <stop offset="0%" stop-color="#34331a"/>
      <stop offset="52%" stop-color="#0A1610"/>
      <stop offset="100%" stop-color="#060F0A"/>
    </radialGradient>
    <radialGradient id="swHalo" cx="50%" cy="42%" r="52%">
      <stop offset="0%" stop-color="#F2DFA8" stop-opacity="0.2"/>
      <stop offset="60%" stop-color="#C89B3C" stop-opacity="0.07"/>
      <stop offset="100%" stop-color="#C89B3C" stop-opacity="0"/>
    </radialGradient>
    <radialGradient id="swContact" cx="50%" cy="50%" r="50%">
      <stop offset="0%" stop-color="#060F0A" stop-opacity="0.75"/>
      <stop offset="100%" stop-color="#060F0A" stop-opacity="0"/>
    </radialGradient>
    <linearGradient id="swScreen" x1="0" y1="0" x2="0" y2="1">
      <stop offset="0%" stop-color="#735f28"/>
      <stop offset="100%" stop-color="#252916"/>
    </linearGradient>
    <filter id="swSoft" x="-60%" y="-60%" width="220%" height="220%">
      <feGaussianBlur stdDeviation="26"/>
    </filter>
    <radialGradient id="swVignette" cx="50%" cy="46%" r="72%">
      <stop offset="55%" stop-color="#060F0A" stop-opacity="0"/>
      <stop offset="100%" stop-color="#060F0A" stop-opacity="0.72"/>
    </radialGradient>
  </defs><rect width="1920" height="1080" fill="url(#swSky)"/><rect width="1920" height="1080" fill="url(#swHalo)"/><circle cx="1089" cy="488" r="1.7" fill="#C89B3C" opacity="0"><animate attributeName="opacity" values="0;0.5;0" dur="15.5s" begin="6.7s" repeatCount="indefinite"/></circle><circle cx="867" cy="884" r="1.9" fill="#F2DFA8" opacity="0"><animate attributeName="opacity" values="0;0.5;0" dur="15.1s" begin="2.2s" repeatCount="indefinite"/></circle><circle cx="767" cy="508" r="2.0" fill="#F2DFA8" opacity="0"><animate attributeName="opacity" values="0;0.5;0" dur="7.0s" begin="0.5s" repeatCount="indefinite"/></circle><circle cx="1651" cy="274" r="1.7" fill="#F2DFA8" opacity="0"><animate attributeName="opacity" values="0;0.5;0" dur="8.5s" begin="5.7s" repeatCount="indefinite"/></circle><circle cx="1730" cy="490" r="1.8" fill="#F2DFA8" opacity="0"><animate attributeName="opacity" values="0;0.5;0" dur="14.6s" begin="1.3s" repeatCount="indefinite"/></circle><circle cx="376" cy="729" r="2.4" fill="#C89B3C" opacity="0"><animate attributeName="opacity" values="0;0.5;0" dur="10.6s" begin="1.4s" repeatCount="indefinite"/></circle><circle cx="1569" cy="554" r="3.3" fill="#F2DFA8" opacity="0"><animate attributeName="opacity" values="0;0.5;0" dur="12.4s" begin="3.2s" repeatCount="indefinite"/></circle><circle cx="978" cy="410" r="2.0" fill="#F2DFA8" opacity="0"><animate attributeName="opacity" values="0;0.5;0" dur="10.5s" begin="4.1s" repeatCount="indefinite"/></circle><circle cx="1143" cy="424" r="3.4" fill="#F2DFA8" opacity="0"><animate attributeName="opacity" values="0;0.5;0" dur="9.4s" begin="5.0s" repeatCount="indefinite"/></circle><circle cx="401" cy="376" r="3.9" fill="#F2DFA8" opacity="0"><animate attributeName="opacity" values="0;0.5;0" dur="8.4s" begin="6.9s" repeatCount="indefinite"/></circle><circle cx="1893" cy="219" r="3.5" fill="#C89B3C" opacity="0"><animate attributeName="opacity" values="0;0.5;0" dur="10.9s" begin="7.6s" repeatCount="indefinite"/></circle><circle cx="1079" cy="144" r="2.6" fill="#F2DFA8" opacity="0"><animate attributeName="opacity" values="0;0.5;0" dur="15.9s" begin="5.6s" repeatCount="indefinite"/></circle><circle cx="1512" cy="691" r="3.8" fill="#F2DFA8" opacity="0"><animate attributeName="opacity" values="0;0.5;0" dur="14.7s" begin="2.3s" repeatCount="indefinite"/></circle><circle cx="853" cy="344" r="2.0" fill="#F2DFA8" opacity="0"><animate attributeName="opacity" values="0;0.5;0" dur="10.8s" begin="5.5s" repeatCount="indefinite"/></circle><circle cx="1834" cy="727" r="1.6" fill="#F2DFA8" opacity="0"><animate attributeName="opacity" values="0;0.5;0" dur="12.8s" begin="7.8s" repeatCount="indefinite"/></circle><circle cx="361" cy="90" r="2.1" fill="#C89B3C" opacity="0"><animate attributeName="opacity" values="0;0.5;0" dur="15.5s" begin="0.7s" repeatCount="indefinite"/></circle><circle cx="900" cy="493" r="3.4" fill="#F2DFA8" opacity="0"><animate attributeName="opacity" values="0;0.5;0" dur="10.0s" begin="8.0s" repeatCount="indefinite"/></circle><circle cx="67" cy="289" r="1.8" fill="#F2DFA8" opacity="0"><animate attributeName="opacity" values="0;0.5;0" dur="10.4s" begin="0.3s" repeatCount="indefinite"/></circle><circle cx="1703" cy="505" r="3.3" fill="#F2DFA8" opacity="0"><animate attributeName="opacity" values="0;0.5;0" dur="7.1s" begin="1.9s" repeatCount="indefinite"/></circle><circle cx="1224" cy="392" r="1.6" fill="#F2DFA8" opacity="0"><animate attributeName="opacity" values="0;0.5;0" dur="10.3s" begin="7.1s" repeatCount="indefinite"/></circle><circle cx="1663" cy="482" r="3.2" fill="#C89B3C" opacity="0"><animate attributeName="opacity" values="0;0.5;0" dur="13.6s" begin="4.4s" repeatCount="indefinite"/></circle><circle cx="1001" cy="514" r="3.5" fill="#F2DFA8" opacity="0"><animate attributeName="opacity" values="0;0.5;0" dur="12.3s" begin="1.0s" repeatCount="indefinite"/></circle><circle cx="553" cy="536" r="3.9" fill="#F2DFA8" opacity="0"><animate attributeName="opacity" values="0;0.5;0" dur="15.0s" begin="0.6s" repeatCount="indefinite"/></circle><circle cx="1087" cy="493" r="2.9" fill="#F2DFA8" opacity="0"><animate attributeName="opacity" values="0;0.5;0" dur="10.3s" begin="8.3s" repeatCount="indefinite"/></circle><circle cx="1361" cy="430" r="2.9" fill="#F2DFA8" opacity="0"><animate attributeName="opacity" values="0;0.5;0" dur="15.0s" begin="0.7s" repeatCount="indefinite"/></circle><circle cx="1313" cy="655" r="3.7" fill="#C89B3C" opacity="0"><animate attributeName="opacity" values="0;0.5;0" dur="9.7s" begin="4.0s" repeatCount="indefinite"/></circle><g><polygon points="840.0,-40.0 1150.0,-40.0 1056.0,126.2 900.0,126.2" fill="#F2DFA8" opacity="0.09" filter="url(#swSoft)"/><ellipse cx="960.0" cy="901.4" rx="228.8" ry="70.4" fill="url(#swContact)"/><polygon points="960.0,234.5 1394.4,485.3 960.0,736.1 525.6,485.3" fill="#2F7D5F"/><polygon points="1394.4,548.0 960.0,798.8 960.0,736.1 1394.4,485.3" fill="#20392b"/><polygon points="525.6,548.0 960.0,798.8 960.0,736.1 525.6,485.3" fill="#14271d"/><polygon points="1394.4,548.0 960.0,798.8 960.0,833.0" fill="#12231a"/><polygon points="525.6,548.0 960.0,798.8 960.0,833.0" fill="#0d1913"/><polygon points="960.0,308.6 1216.7,456.8 960.0,605.0 703.3,456.8" fill="#4d6b61"/><polygon points="1216.7,485.3 960.0,633.5 960.0,605.0 1216.7,456.8" fill="#244a3e"/><polygon points="703.3,485.3 960.0,633.5 960.0,605.0 703.3,456.8" fill="#18342b"/><polygon points="960.0,320.0 1147.6,428.3 960.0,536.6 772.4,428.3" fill="#728578"/><polygon points="1147.6,456.8 960.0,565.1 960.0,536.6 1147.6,428.3" fill="#536a59"/><polygon points="772.4,456.8 960.0,565.1 960.0,536.6 772.4,428.3" fill="#3a4c40"/><polygon points="960.0,331.4 1078.5,399.8 960.0,468.2 841.5,399.8" fill="#98a08d"/><polygon points="1078.5,428.3 960.0,496.7 960.0,468.2 1078.5,399.8" fill="#818a74"/><polygon points="841.5,428.3 960.0,496.7 960.0,468.2 841.5,399.8" fill="#5d6554"/><circle cx="960.0" cy="285.8" r="247.0" fill="#F2DFA8" opacity="0.14" filter="url(#swSoft)"/><circle cx="960.0" cy="285.8" r="98.8" fill="#F2DFA8" opacity="0.3" filter="url(#swSoft)"/><circle cx="960.0" cy="285.8" r="20.9" fill="#f9efd4"/><polygon points="990.1,197.7 1003.9,205.7 929.9,248.5 916.1,240.5" fill="#455a54"/><polygon points="1003.9,382.4 929.9,425.2 929.9,248.5 1003.9,205.7" fill="#1b352d"/><polygon points="916.1,417.2 929.9,425.2 929.9,248.5 916.1,240.5" fill="#10241e"/><polygon points="999.5,378.1 934.3,415.8 934.3,252.7 999.5,215.1" fill="url(#swScreen)"/><polygon points="964.4,284.9 988.1,302.0 964.4,346.5 940.7,329.4" fill="#d2ad5f"/><polygon points="959.5,357.3 975.3,348.2 975.3,353.9 959.5,363.0" fill="#EDE6D6"/><polygon points="950.6,381.8 984.2,362.5 984.2,368.2 950.6,387.5" fill="#7c7e73"/><polygon points="979.7,556.0 992.6,563.4 979.7,570.8 966.9,563.4" fill="#d48d7b"/><polygon points="992.6,598.7 979.7,606.1 979.7,570.8 992.6,563.4" fill="#ca735d"/><polygon points="966.9,598.7 979.7,606.1 979.7,570.8 966.9,563.4" fill="#955343"/><polygon points="979.7,542.3 992.6,549.7 979.7,557.1 966.9,549.7" fill="#e2d4b9"/><polygon points="992.6,563.4 979.7,570.8 979.7,557.1 992.6,549.7" fill="#dccaaa"/><polygon points="966.9,563.4 979.7,570.8 979.7,557.1 966.9,549.7" fill="#a2957c"/><polygon points="703.3,399.3 712.0,404.4 703.3,409.4 694.6,404.4" fill="#a18869"/><polygon points="712.0,445.4 703.3,450.4 703.3,409.4 712.0,404.4" fill="#8c6d48"/><polygon points="694.6,445.4 703.3,450.4 703.3,409.4 694.6,404.4" fill="#664e32"/><polygon points="703.3,339.6 752.3,367.9 703.3,396.2 654.4,367.9" fill="#65aa8f"/><polygon points="752.3,408.9 703.3,437.2 703.3,396.2 752.3,367.9" fill="#429776"/><polygon points="654.4,408.9 703.3,437.2 703.3,396.2 654.4,367.9" fill="#2e6e55"/><polygon points="703.3,322.3 736.5,341.4 703.3,360.6 670.1,341.4" fill="#74b39a"/><polygon points="736.5,371.5 703.3,390.7 703.3,360.6 736.5,341.4" fill="#54a284"/><polygon points="670.1,371.5 703.3,390.7 703.3,360.6 670.1,341.4" fill="#3c765f"/><polygon points="1167.3,531.7 1174.7,535.9 1167.3,540.2 1159.9,535.9" fill="#a18869"/><polygon points="1174.7,570.8 1167.3,575.1 1167.3,540.2 1174.7,535.9" fill="#8c6d48"/><polygon points="1159.9,570.8 1167.3,575.1 1167.3,540.2 1159.9,535.9" fill="#664e32"/><polygon points="1167.3,480.9 1208.9,504.9 1167.3,528.9 1125.7,504.9" fill="#72b99b"/><polygon points="1208.9,539.8 1167.3,563.8 1167.3,528.9 1208.9,504.9" fill="#53aa85"/><polygon points="1125.7,539.8 1167.3,563.8 1167.3,528.9 1125.7,504.9" fill="#3a7c60"/><polygon points="1167.3,466.1 1195.5,482.4 1167.3,498.7 1139.1,482.4" fill="#81c1a5"/><polygon points="1195.5,508.0 1167.3,524.3 1167.3,498.7 1195.5,482.4" fill="#64b391"/><polygon points="1139.1,508.0 1167.3,524.3 1167.3,498.7 1139.1,482.4" fill="#48836a"/><polygon points="1009.4,296.9 1015.9,300.6 1009.4,304.4 1002.8,300.6" fill="#a18869"/><polygon points="1015.9,331.4 1009.4,335.2 1009.4,304.4 1015.9,300.6" fill="#8c6d48"/><polygon points="1002.8,331.4 1009.4,335.2 1009.4,304.4 1002.8,300.6" fill="#664e32"/><polygon points="1009.4,252.1 1046.1,273.3 1009.4,294.5 972.6,273.3" fill="#65aa8f"/><polygon points="1046.1,304.0 1009.4,325.2 1009.4,294.5 1046.1,273.3" fill="#429776"/><polygon points="972.6,304.0 1009.4,325.2 1009.4,294.5 972.6,273.3" fill="#2e6e55"/><polygon points="1009.4,239.1 1034.2,253.4 1009.4,267.8 984.5,253.4" fill="#74b39a"/><polygon points="1034.2,276.0 1009.4,290.4 1009.4,267.8 1034.2,253.4" fill="#54a284"/><polygon points="984.5,276.0 1009.4,290.4 1009.4,267.8 984.5,253.4" fill="#3c765f"/></g><rect width="1920" height="1080" fill="url(#swVignette)"/></svg>
