<svg xmlns="http://www.w3.org/2000/svg" viewBox="0 0 1920 1080" width="1920" height="1080" role="img">
  <defs>
    <radialGradient id="swSky" cx="52%" cy="34%" r="78%">
      <stop offset="0%" stop-color="#1b3a2b"/>
      <stop offset="52%" stop-color="#0A1610"/>
      <stop offset="100%" stop-color="#060F0A"/>
    </radialGradient>
    <radialGradient id="swHalo" cx="50%" cy="42%" r="52%">
      <stop offset="0%" stop-color="#F2DFA8" stop-opacity="0.2"/>
      <stop offset="60%" stop-color="#58B98C" stop-opacity="0.07"/>
      <stop offset="100%" stop-color="#58B98C" stop-opacity="0"/>
    </radialGradient>
    <radialGradient id="swContact" cx="50%" cy="50%" r="50%">
      <stop offset="0%" stop-color="#060F0A" stop-opacity="0.75"/>
      <stop offset="100%" stop-color="#060F0A" stop-opacity="0"/>
    </radialGradient>
    <linearGradient id="swScreen" x1="0" y1="0" x2="0" y2="1">
      <stop offset="0%" stop-color="#357054"/>
      <stop offset="100%" stop-color="#152d21"/>
    </linearGradient>
    <filter id="swSoft" x="-60%" y="-60%" width="220%" height="220%">
      <feGaussianBlur stdDeviation="26"/>
    </filter>
    <radialGradient id="swVignette" cx="50%" cy="46%" r="72%">
      <stop offset="55%" stop-color="#060F0A" stop-opacity="0"/>
      <stop offset="100%" stop-color="#060F0A" stop-opacity="0.72"/>
    </radialGradient>
  </defs><rect width="1920" height="1080" fill="url(#swSky)"/><rect width="1920" height="1080" fill="url(#swHalo)"/><circle cx="1039" cy="879" r="1.6" fill="#58B98C" opacity="0"><animate attributeName="opacity" values="0;0.5;0" dur="13.6s" begin="1.2s" repeatCount="indefinite"/></circle><circle cx="602" cy="790" r="3.1" fill="#F2DFA8" opacity="0"><animate attributeName="opacity" values="0;0.5;0" dur="11.0s" begin="4.2s" repeatCount="indefinite"/></circle><circle cx="422" cy="119" r="2.4" fill="#F2DFA8" opacity="0"><animate attributeName="opacity" values="0;0.5;0" dur="15.9s" begin="2.9s" repeatCount="indefinite"/></circle><circle cx="1121" cy="781" r="2.4" fill="#F2DFA8" opacity="0"><animate attributeName="opacity" values="0;0.5;0" dur="11.3s" begin="8.2s" repeatCount="indefinite"/></circle><circle cx="1285" cy="706" r="3.9" fill="#F2DFA8" opacity="0"><animate attributeName="opacity" values="0;0.5;0" dur="12.4s" begin="6.6s" repeatCount="indefinite"/></circle><circle cx="824" cy="423" r="1.6" fill="#58B98C" opacity="0"><animate attributeName="opacity" values="0;0.5;0" dur="15.3s" begin="3.5s" repeatCount="indefinite"/></circle><circle cx="1765" cy="406" r="2.7" fill="#F2DFA8" opacity="0"><animate attributeName="opacity" values="0;0.5;0" dur="13.7s" begin="2.0s" repeatCount="indefinite"/></circle><circle cx="1065" cy="722" r="2.1" fill="#F2DFA8" opacity="0"><animate attributeName="opacity" values="0;0.5;0" dur="8.8s" begin="2.1s" repeatCount="indefinite"/></circle><circle cx="649" cy="330" r="2.8" fill="#F2DFA8" opacity="0"><animate attributeName="opacity" values="0;0.5;0" dur="9.0s" begin="4.5s" repeatCount="indefinite"/></circle><circle cx="1166" cy="370" r="1.6" fill="#F2DFA8" opacity="0"><animate attributeName="opacity" values="0;0.5;0" dur="14.3s" begin="5.5s" repeatCount="indefinite"/></circle><circle cx="1602" cy="145" r="2.9" fill="#58B98C" opacity="0"><animate attributeName="opacity" values="0;0.5;0" dur="9.3s" begin="2.9s" repeatCount="indefinite"/></circle><circle cx="1699" cy="427" r="3.7" fill="#F2DFA8" opacity="0"><animate attributeName="opacity" values="0;0.5;0" dur="14.9s" begin="5.9s" repeatCount="indefinite"/></circle><circle cx="1077" cy="791" r="3.7" fill="#F2DFA8" opacity="0"><animate attributeName="opacity" values="0;0.5;0" dur="11.2s" begin="0.1s" repeatCount="indefinite"/></circle><circle cx="750" cy="233" r="1.7" fill="#F2DFA8" opacity="0"><animate attributeName="opacity" values="0;0.5;0" dur="14.8s" begin="3.4s" repeatCount="indefinite"/></circle><circle cx="112" cy="414" r="4.0" fill="#F2DFA8" opacity="0"><animate attributeName="opacity" values="0;0.5;0" dur="11.9s" begin="2.4s" repeatCount="indefinite"/></circle><circle cx="1756" cy="844" r="1.7" fill="#58B98C" opacity="0"><animate attributeName="opacity" values="0;0.5;0" dur="7.2s" begin="8.2s" repeatCount="indefinite"/></circle><circle cx="1876" cy="236" r="1.5" fill="#F2DFA8" opacity="0"><animate attributeName="opacity" values="0;0.5;0" dur="15.3s" begin="1.6s" repeatCount="indefinite"/></circle><circle cx="827" cy="774" r="3.8" fill="#F2DFA8" opacity="0"><animate attributeName="opacity" values="0;0.5;0" dur="12.0s" begin="7.4s" repeatCount="indefinite"/></circle><circle cx="1176" cy="619" r="2.9" fill="#F2DFA8" opacity="0"><animate attributeName="opacity" values="0;0.5;0" dur="10.2s" begin="0.1s" repeatCount="indefinite"/></circle><circle cx="683" cy="173" r="1.6" fill="#F2DFA8" opacity="0"><animate attributeName="opacity" values="0;0.5;0" dur="10.1s" begin="4.6s" repeatCount="indefinite"/></circle><circle cx="1552" cy="198" r="2.6" fill="#58B98C" opacity="0"><animate attributeName="opacity" values="0;0.5;0" dur="8.4s" begin="0.2s" repeatCount="indefinite"/></circle><circle cx="1301" cy="185" r="3.8" fill="#F2DFA8" opacity="0"><animate attributeName="opacity" values="0;0.5;0" dur="12.9s" begin="5.5s" repeatCount="indefinite"/></circle><circle cx="1137" cy="513" r="2.7" fill="#F2DFA8" opacity="0"><animate attributeName="opacity" values="0;0.5;0" dur="12.3s" begin="6.0s" repeatCount="indefinite"/></circle><circle cx="35" cy="811" r="3.1" fill="#F2DFA8" opacity="0"><animate attributeName="opacity" values="0;0.5;0" dur="9.2s" begin="3.8s" repeatCount="indefinite"/></circle><circle cx="454" cy="193" r="1.5" fill="#F2DFA8" opacity="0"><animate attributeName="opacity" values="0;0.5;0" dur="10.0s" begin="3.8s" repeatCount="indefinite"/></circle><circle cx="167" cy="887" r="3.8" fill="#58B98C" opacity="0"><animate attributeName="opacity" values="0;0.5;0" dur="12.0s" begin="4.4s" repeatCount="indefinite"/></circle><g><polygon points="840.0,-40.0 1150.0,-40.0 1056.0,263.0 900.0,263.0" fill="#58B98C" opacity="0.09" filter="url(#swSoft)"/><ellipse cx="960.0" cy="855.8" rx="218.4" ry="67.2" fill="url(#swContact)"/><polygon points="960.0,245.9 1374.6,485.3 960.0,724.7 545.4,485.3" fill="#2F7D5F"/><polygon points="1374.6,548.0 960.0,787.4 960.0,724.7 1374.6,485.3" fill="#20392b"/><polygon points="545.4,548.0 960.0,787.4 960.0,724.7 545.4,485.3" fill="#14271d"/><polygon points="1374.6,548.0 960.0,787.4 960.0,787.4" fill="#12231a"/><polygon points="545.4,548.0 960.0,787.4 960.0,787.4" fill="#0d1913"/><ellipse cx="960.0" cy="484.7" rx="209.4" ry="120.9" fill="#c9b99b"/><ellipse cx="960.0" cy="484.2" rx="153.6" ry="88.7" fill="#C9705A" opacity="0.5"/><polygon points="876.1,379.9 925.4,408.4 876.1,436.8 826.7,408.4" fill="#a18869"/><polygon points="925.4,436.9 876.1,465.3 876.1,436.8 925.4,408.4" fill="#8c6d48"/><polygon points="826.7,436.9 876.1,465.3 876.1,436.8 826.7,408.4" fill="#664e32"/><polygon points="876.1,334.3 887.9,341.1 838.6,369.6 826.7,362.8" fill="#ab9479"/><polygon points="887.9,386.7 838.6,415.2 838.6,369.6 887.9,341.1" fill="#987c5a"/><polygon points="826.7,408.4 838.6,415.2 838.6,369.6 826.7,362.8" fill="#6f5a40"/><polygon points="1043.9,476.8 1093.3,505.3 1043.9,533.8 994.6,505.3" fill="#a18869"/><polygon points="1093.3,533.8 1043.9,562.3 1043.9,533.8 1093.3,505.3" fill="#8c6d48"/><polygon points="994.6,533.8 1043.9,562.3 1043.9,533.8 994.6,505.3" fill="#664e32"/><polygon points="1081.4,452.8 1093.3,459.7 1043.9,488.2 1032.1,481.3" fill="#ab9479"/><polygon points="1093.3,505.3 1043.9,533.8 1043.9,488.2 1093.3,459.7" fill="#987c5a"/><polygon points="1032.1,526.9 1043.9,533.8 1043.9,488.2 1032.1,481.3" fill="#6f5a40"/><polygon points="876.1,369.9 887.6,376.5 876.1,383.2 864.5,376.5" fill="#d48d7b"/><polygon points="887.6,408.4 876.1,415.0 876.1,383.2 887.6,376.5" fill="#ca735d"/><polygon points="864.5,408.4 876.1,415.0 876.1,383.2 864.5,376.5" fill="#955343"/><polygon points="876.1,357.6 887.6,364.2 876.1,370.9 864.5,364.2" fill="#e2d4b9"/><polygon points="887.6,376.5 876.1,383.2 876.1,370.9 887.6,364.2" fill="#dccaaa"/><polygon points="864.5,376.5 876.1,383.2 876.1,370.9 864.5,364.2" fill="#a2957c"/><circle cx="1043.9" cy="471.1" r="175.5" fill="#58B98C" opacity="0.14" filter="url(#swSoft)"/><circle cx="1043.9" cy="471.1" r="70.2" fill="#58B98C" opacity="0.3" filter="url(#swSoft)"/><circle cx="1043.9" cy="471.1" r="14.9" fill="#acdcc6"/><path d="M921.6,484.7 A38.4,22.2 0 0 0 998.4,484.7 L998.4,456.2 A38.4,22.2 0 0 1 921.6,456.2 Z" fill="#d1cabc"/><ellipse cx="960.0" cy="456.2" rx="38.4" ry="22.2" fill="#f1ebde"/><path d="M948.8,456.2 A11.2,6.4 0 0 0 971.2,456.2 L971.2,446.0 A11.2,6.4 0 0 1 948.8,446.0 Z" fill="#4da37b"/><ellipse cx="960.0" cy="446.0" rx="11.2" ry="6.4" fill="#79c7a3"/><polygon points="969.9,120.5 1305.5,314.3 1289.7,323.4 954.1,129.6" fill="#f1ebde"/><polygon points="1305.5,479.6 1289.7,488.7 1289.7,323.4 1305.5,314.3" fill="#ede7d7"/><polygon points="954.1,294.9 1289.7,488.7 1289.7,323.4 954.1,129.6" fill="#afaa9e"/><polygon points="960.0,114.8 975.8,123.9 640.1,317.7 624.3,308.6" fill="#dad5c9"/><polygon points="975.8,289.2 640.1,483.0 640.1,317.7 975.8,123.9" fill="#d2cbbd"/><polygon points="624.3,473.9 640.1,483.0 640.1,317.7 624.3,308.6" fill="#9b958b"/><polygon points="1151.5,363.3 1225.6,406.1 1225.6,309.2 1151.5,266.4" fill="url(#swScreen)"/><polygon points="978.8,295.5 1072.5,349.6 1057.7,358.2 963.9,304.0" fill="#a18869"/><polygon points="1072.5,363.3 1057.7,371.9 1057.7,358.2 1072.5,349.6" fill="#8c6d48"/><polygon points="963.9,317.7 1057.7,371.9 1057.7,358.2 963.9,304.0" fill="#664e32"/><polygon points="980.7,273.8 990.6,279.5 978.8,286.4 968.9,280.7" fill="#79c7a3"/><polygon points="990.6,304.6 978.8,311.5 978.8,286.4 990.6,279.5" fill="#5bba8e"/><polygon points="968.9,305.8 978.8,311.5 978.8,286.4 968.9,280.7" fill="#418968"/><polygon points="995.5,276.7 1005.4,282.4 993.6,289.2 983.7,283.5" fill="#d3af63"/><polygon points="1005.4,313.2 993.6,320.0 993.6,289.2 1005.4,282.4" fill="#c99d40"/><polygon points="983.7,314.3 993.6,320.0 993.6,289.2 983.7,283.5" fill="#94732c"/><polygon points="1010.3,279.5 1020.2,285.2 1008.4,292.1 998.5,286.4" fill="#d48d7b"/><polygon points="1020.2,321.7 1008.4,328.6 1008.4,292.1 1020.2,285.2" fill="#ca735d"/><polygon points="998.5,322.9 1008.4,328.6 1008.4,292.1 998.5,286.4" fill="#955343"/><polygon points="1025.2,299.5 1035.0,305.2 1023.2,312.0 1013.3,306.3" fill="#79c7a3"/><polygon points="1035.0,330.3 1023.2,337.1 1023.2,312.0 1035.0,305.2" fill="#5bba8e"/><polygon points="1013.3,331.4 1023.2,337.1 1023.2,312.0 1013.3,306.3" fill="#418968"/><polygon points="1040.0,302.3 1049.8,308.0 1038.0,314.9 1028.1,309.2" fill="#d3af63"/><polygon points="1049.8,338.8 1038.0,345.6 1038.0,314.9 1049.8,308.0" fill="#c99d40"/><polygon points="1028.1,339.9 1038.0,345.6 1038.0,314.9 1028.1,309.2" fill="#94732c"/><polygon points="1054.8,305.2 1064.6,310.9 1052.8,317.7 1042.9,312.0" fill="#d48d7b"/><polygon points="1064.6,347.4 1052.8,354.2 1052.8,317.7 1064.6,310.9" fill="#ca735d"/><polygon points="1042.9,348.5 1052.8,354.2 1052.8,317.7 1042.9,312.0" fill="#955343"/><polygon points="673.7,422.1 682.4,427.2 673.7,432.2 665.0,427.2" fill="#a18869"/><polygon points="682.4,468.2 673.7,473.2 673.7,432.2 682.4,427.2" fill="#8c6d48"/><polygon points="665.0,468.2 673.7,473.2 673.7,432.2 665.0,427.2" fill="#664e32"/><polygon points="673.7,362.4 722.7,390.7 673.7,419.0 624.7,390.7" fill="#65aa8f"/><polygon points="722.7,431.7 673.7,460.0 673.7,419.0 722.7,390.7" fill="#429776"/><polygon points="624.7,431.7 673.7,460.0 673.7,419.0 624.7,390.7" fill="#2e6e55"/><polygon points="673.7,345.1 706.9,364.2 673.7,383.4 640.5,364.2" fill="#74b39a"/><polygon points="706.9,394.3 673.7,413.5 673.7,383.4 706.9,364.2" fill="#54a284"/><polygon points="640.5,394.3 673.7,413.5 673.7,383.4 640.5,364.2" fill="#3c765f"/><polygon points="1201.9,484.9 1208.9,489.0 1201.9,493.1 1194.8,489.0" fill="#a18869"/><polygon points="1208.9,522.3 1201.9,526.4 1201.9,493.1 1208.9,489.0" fill="#8c6d48"/><polygon points="1194.8,522.3 1201.9,526.4 1201.9,493.1 1194.8,489.0" fill="#664e32"/><polygon points="1201.9,436.4 1241.7,459.4 1201.9,482.3 1162.1,459.4" fill="#72b99b"/><polygon points="1241.7,492.7 1201.9,515.7 1201.9,482.3 1241.7,459.4" fill="#53aa85"/><polygon points="1162.1,492.7 1201.9,515.7 1201.9,482.3 1162.1,459.4" fill="#3a7c60"/><polygon points="1201.9,422.3 1228.8,437.9 1201.9,453.4 1174.9,437.9" fill="#81c1a5"/><polygon points="1228.8,462.3 1201.9,477.9 1201.9,453.4 1228.8,437.9" fill="#64b391"/><polygon points="1174.9,462.3 1201.9,477.9 1201.9,453.4 1174.9,437.9" fill="#48836a"/></g><rect width="1920" height="1080" fill="url(#swVignette)"/></svg>
