<svg xmlns="http://www.w3.org/2000/svg" viewBox="0 0 1920 1080" width="1920" height="1080" role="img">
  <defs>
    <radialGradient id="swSky" cx="52%" cy="34%" r="78%">
      <stop offset="0%" stop-color="#34331a"/>
      <stop offset="52%" stop-color="#0A1610"/>
      <stop offset="100%" stop-color="#060F0A"/>
    </radialGradient>
    <radialGradient id="swHalo" cx="50%" cy="42%" r="52%">
      <stop offset="0%" stop-color="#F2DFA8" stop-opacity="0.2"/>
      <stop offset="60%" stop-color="#C89B3C" stop-opacity="0.07"/>
      <stop offset="100%" stop-color="#C89B3C" stop-opacity="0"/>
    </radialGradient>
    <radialGradient id="swContact" cx="50%" cy="50%" r="50%">
      <stop offset="0%" stop-color="#060F0A" stop-opacity="0.75"/>
      <stop offset="100%" stop-color="#060F0A" stop-opacity="0"/>
    </radialGradient>
    <linearGradient id="swScreen" x1="0" y1="0" x2="0" y2="1">
      <stop offset="0%" stop-color="#735f28"/>
      <stop offset="100%" stop-color="#252916"/>
    </linearGradient>
    <filter id="swSoft" x="-60%" y="-60%" width="220%" height="220%">
      <feGaussianBlur stdDeviation="26"/>
    </filter>
    <radialGradient id="swVignette" cx="50%" cy="46%" r="72%">
      <stop offset="55%" stop-color="#060F0A" stop-opacity="0"/>
      <stop offset="100%" stop-color="#060F0A" stop-opacity="0.72"/>
    </radialGradient>
  </defs><rect width="1920" height="1080" fill="url(#swSky)"/><rect width="1920" height="1080" fill="url(#swHalo)"/><circle cx="939" cy="841" r="2.6" fill="#C89B3C" opacity="0"><animate attributeName="opacity" values="0;0.5;0" dur="10.6s" begin="2.1s" repeatCount="indefinite"/></circle><circle cx="1170" cy="508" r="2.7" fill="#F2DFA8" opacity="0"><animate attributeName="opacity" values="0;0.5;0" dur="9.7s" begin="0.3s" repeatCount="indefinite"/></circle><circle cx="553" cy="243" r="2.1" fill="#F2DFA8" opacity="0"><animate attributeName="opacity" values="0;0.5;0" dur="7.7s" begin="3.9s" repeatCount="indefinite"/></circle><circle cx="53" cy="222" r="3.0" fill="#F2DFA8" opacity="0"><animate attributeName="opacity" values="0;0.5;0" dur="13.6s" begin="2.0s" repeatCount="indefinite"/></circle><circle cx="649" cy="287" r="1.5" fill="#F2DFA8" opacity="0"><animate attributeName="opacity" values="0;0.5;0" dur="15.4s" begin="4.3s" repeatCount="indefinite"/></circle><circle cx="1441" cy="661" r="2.5" fill="#C89B3C" opacity="0"><animate attributeName="opacity" values="0;0.5;0" dur="15.3s" begin="6.7s" repeatCount="indefinite"/></circle><circle cx="712" cy="601" r="2.0" fill="#F2DFA8" opacity="0"><animate attributeName="opacity" values="0;0.5;0" dur="14.5s" begin="5.9s" repeatCount="indefinite"/></circle><circle cx="535" cy="629" r="2.6" fill="#F2DFA8" opacity="0"><animate attributeName="opacity" values="0;0.5;0" dur="8.2s" begin="7.3s" repeatCount="indefinite"/></circle><circle cx="1738" cy="539" r="3.5" fill="#F2DFA8" opacity="0"><animate attributeName="opacity" values="0;0.5;0" dur="12.3s" begin="6.5s" repeatCount="indefinite"/></circle><circle cx="1017" cy="192" r="3.3" fill="#F2DFA8" opacity="0"><animate attributeName="opacity" values="0;0.5;0" dur="13.0s" begin="7.6s" repeatCount="indefinite"/></circle><circle cx="539" cy="120" r="3.8" fill="#C89B3C" opacity="0"><animate attributeName="opacity" values="0;0.5;0" dur="13.0s" begin="7.7s" repeatCount="indefinite"/></circle><circle cx="58" cy="829" r="3.0" fill="#F2DFA8" opacity="0"><animate attributeName="opacity" values="0;0.5;0" dur="14.0s" begin="4.7s" repeatCount="indefinite"/></circle><circle cx="1652" cy="404" r="3.9" fill="#F2DFA8" opacity="0"><animate attributeName="opacity" values="0;0.5;0" dur="15.0s" begin="6.7s" repeatCount="indefinite"/></circle><circle cx="1550" cy="865" r="2.5" fill="#F2DFA8" opacity="0"><animate attributeName="opacity" values="0;0.5;0" dur="14.5s" begin="5.4s" repeatCount="indefinite"/></circle><circle cx="1758" cy="314" r="3.5" fill="#F2DFA8" opacity="0"><animate attributeName="opacity" values="0;0.5;0" dur="15.3s" begin="1.9s" repeatCount="indefinite"/></circle><circle cx="453" cy="732" r="1.5" fill="#C89B3C" opacity="0"><animate attributeName="opacity" values="0;0.5;0" dur="10.3s" begin="8.1s" repeatCount="indefinite"/></circle><circle cx="747" cy="560" r="2.1" fill="#F2DFA8" opacity="0"><animate attributeName="opacity" values="0;0.5;0" dur="13.8s" begin="3.8s" repeatCount="indefinite"/></circle><circle cx="1281" cy="244" r="2.8" fill="#F2DFA8" opacity="0"><animate attributeName="opacity" values="0;0.5;0" dur="12.8s" begin="8.9s" repeatCount="indefinite"/></circle><circle cx="88" cy="849" r="3.9" fill="#F2DFA8" opacity="0"><animate attributeName="opacity" values="0;0.5;0" dur="15.4s" begin="2.2s" repeatCount="indefinite"/></circle><circle cx="850" cy="420" r="3.6" fill="#F2DFA8" opacity="0"><animate attributeName="opacity" values="0;0.5;0" dur="7.0s" begin="4.7s" repeatCount="indefinite"/></circle><circle cx="1891" cy="286" r="1.8" fill="#C89B3C" opacity="0"><animate attributeName="opacity" values="0;0.5;0" dur="8.8s" begin="8.2s" repeatCount="indefinite"/></circle><circle cx="570" cy="841" r="3.4" fill="#F2DFA8" opacity="0"><animate attributeName="opacity" values="0;0.5;0" dur="13.6s" begin="4.8s" repeatCount="indefinite"/></circle><circle cx="323" cy="378" r="1.5" fill="#F2DFA8" opacity="0"><animate attributeName="opacity" values="0;0.5;0" dur="12.4s" begin="3.6s" repeatCount="indefinite"/></circle><circle cx="1081" cy="552" r="3.0" fill="#F2DFA8" opacity="0"><animate attributeName="opacity" values="0;0.5;0" dur="10.1s" begin="6.1s" repeatCount="indefinite"/></circle><circle cx="373" cy="887" r="1.7" fill="#F2DFA8" opacity="0"><animate attributeName="opacity" values="0;0.5;0" dur="9.5s" begin="5.4s" repeatCount="indefinite"/></circle><circle cx="1194" cy="99" r="1.8" fill="#C89B3C" opacity="0"><animate attributeName="opacity" values="0;0.5;0" dur="8.4s" begin="6.9s" repeatCount="indefinite"/></circle><g><polygon points="914.0,-40.0 1224.0,-40.0 1130.0,168.9 974.0,168.9" fill="#F2DFA8" opacity="0.09" filter="url(#swSoft)"/><ellipse cx="960.0" cy="912.8" rx="260.0" ry="80.0" fill="url(#swContact)"/><polygon points="960.0,200.3 1453.6,485.3 960.0,770.3 466.4,485.3" fill="#2F7D5F"/><polygon points="1453.6,548.0 960.0,833.0 960.0,770.3 1453.6,485.3" fill="#20392b"/><polygon points="466.4,548.0 960.0,833.0 960.0,770.3 466.4,485.3" fill="#14271d"/><polygon points="1453.6,548.0 960.0,833.0 960.0,844.4" fill="#12231a"/><polygon points="466.4,548.0 960.0,833.0 960.0,844.4" fill="#0d1913"/><polygon points="960.0,251.6 1295.7,445.4 960.0,639.2 624.3,445.4" fill="#59977f"/><polygon points="1295.7,485.3 960.0,679.1 960.0,639.2 1295.7,445.4" fill="#338062"/><polygon points="624.3,485.3 960.0,679.1 960.0,639.2 624.3,445.4" fill="#235d46"/><polygon points="960.0,274.4 1187.1,405.5 960.0,536.6 732.9,405.5" fill="#629d87"/><polygon points="1187.1,445.4 960.0,576.5 960.0,536.6 1187.1,405.5" fill="#3f876c"/><polygon points="732.9,445.4 960.0,576.5 960.0,536.6 732.9,405.5" fill="#2c624e"/><polygon points="960.0,302.9 1078.5,371.3 960.0,439.7 841.5,371.3" fill="#6da48e"/><polygon points="1078.5,405.5 960.0,473.9 960.0,439.7 1078.5,371.3" fill="#4c8f75"/><polygon points="841.5,405.5 960.0,473.9 960.0,439.7 841.5,371.3" fill="#356854"/><ellipse cx="960.0" cy="621.5" rx="20.9" ry="12.1" fill="#215843"/><ellipse cx="940.3" cy="541.7" rx="20.9" ry="12.1" fill="#235d46"/><ellipse cx="940.3" cy="456.2" rx="20.9" ry="12.1" fill="#25624a"/><polygon points="737.9,365.0 749.3,371.6 737.9,378.2 726.5,371.6" fill="#a18869"/><polygon points="749.3,425.4 737.9,432.0 737.9,378.2 749.3,371.6" fill="#8c6d48"/><polygon points="726.5,425.4 737.9,432.0 737.9,378.2 726.5,371.6" fill="#664e32"/><polygon points="737.9,286.6 802.1,323.7 737.9,360.8 673.6,323.7" fill="#65aa8f"/><polygon points="802.1,377.6 737.9,414.7 737.9,360.8 802.1,323.7" fill="#429776"/><polygon points="673.6,377.6 737.9,414.7 737.9,360.8 673.6,323.7" fill="#2e6e55"/><polygon points="737.9,263.9 781.4,289.0 737.9,314.1 694.3,289.0" fill="#74b39a"/><polygon points="781.4,328.5 737.9,353.6 737.9,314.1 781.4,289.0" fill="#54a284"/><polygon points="694.3,328.5 737.9,353.6 737.9,314.1 694.3,289.0" fill="#3c765f"/><polygon points="1192.0,407.9 1200.7,412.9 1192.0,417.9 1183.3,412.9" fill="#a18869"/><polygon points="1200.7,453.9 1192.0,459.0 1192.0,417.9 1200.7,412.9" fill="#8c6d48"/><polygon points="1183.3,453.9 1192.0,459.0 1192.0,417.9 1183.3,412.9" fill="#664e32"/><polygon points="1192.0,348.2 1241.0,376.4 1192.0,404.7 1143.0,376.4" fill="#72b99b"/><polygon points="1241.0,417.5 1192.0,445.7 1192.0,404.7 1241.0,376.4" fill="#53aa85"/><polygon points="1143.0,417.5 1192.0,445.7 1192.0,404.7 1143.0,376.4" fill="#3a7c60"/><polygon points="1192.0,330.8 1225.2,350.0 1192.0,369.1 1158.8,350.0" fill="#81c1a5"/><polygon points="1225.2,380.1 1192.0,399.2 1192.0,369.1 1225.2,350.0" fill="#64b391"/><polygon points="1158.8,380.1 1192.0,399.2 1192.0,369.1 1158.8,350.0" fill="#48836a"/><polygon points="737.9,453.6 745.5,457.9 737.9,462.3 730.3,457.9" fill="#a18869"/><polygon points="745.5,493.9 737.9,498.2 737.9,462.3 745.5,457.9" fill="#8c6d48"/><polygon points="730.3,493.9 737.9,498.2 737.9,462.3 730.3,457.9" fill="#664e32"/><polygon points="737.9,401.3 780.7,426.0 737.9,450.8 695.0,426.0" fill="#65aa8f"/><polygon points="780.7,461.9 737.9,486.7 737.9,450.8 780.7,426.0" fill="#429776"/><polygon points="695.0,461.9 737.9,486.7 737.9,450.8 695.0,426.0" fill="#2e6e55"/><polygon points="737.9,386.1 766.9,402.9 737.9,419.6 708.8,402.9" fill="#74b39a"/><polygon points="766.9,429.2 737.9,446.0 737.9,419.6 766.9,402.9" fill="#54a284"/><polygon points="708.8,429.2 737.9,446.0 737.9,419.6 708.8,402.9" fill="#3c765f"/><polygon points="920.5,487.6 933.3,495.0 920.5,502.4 907.7,495.0" fill="#d48d7b"/><polygon points="933.3,530.3 920.5,537.7 920.5,502.4 933.3,495.0" fill="#ca735d"/><polygon points="907.7,530.3 920.5,537.7 920.5,502.4 907.7,495.0" fill="#955343"/><polygon points="920.5,473.9 933.3,481.3 920.5,488.7 907.7,481.3" fill="#e2d4b9"/><polygon points="933.3,495.0 920.5,502.4 920.5,488.7 933.3,481.3" fill="#dccaaa"/><polygon points="907.7,495.0 920.5,502.4 920.5,488.7 907.7,481.3" fill="#a2957c"/><polygon points="960.0,279.0 971.8,285.8 960.0,292.6 948.2,285.8" fill="#a18869"/><polygon points="971.8,371.3 960.0,378.1 960.0,292.6 971.8,285.8" fill="#8c6d48"/><polygon points="948.2,371.3 960.0,378.1 960.0,292.6 948.2,285.8" fill="#664e32"/><polygon points="960.0,232.2 991.6,250.5 960.0,268.7 928.4,250.5" fill="#d3af63"/><polygon points="991.6,285.8 960.0,304.0 960.0,268.7 991.6,250.5" fill="#c99d40"/><polygon points="928.4,285.8 960.0,304.0 960.0,268.7 928.4,250.5" fill="#94732c"/><circle cx="960.0" cy="257.3" r="162.5" fill="#F2DFA8" opacity="0.14" filter="url(#swSoft)"/><circle cx="960.0" cy="257.3" r="65.0" fill="#F2DFA8" opacity="0.3" filter="url(#swSoft)"/><circle cx="960.0" cy="257.3" r="13.8" fill="#f9efd4"/></g><rect width="1920" height="1080" fill="url(#swVignette)"/></svg>
